<?xml version="1.0" standalone="no"?>
<!DOCTYPE svg PUBLIC "-//W3C//DTD SVG 20010904//EN"
 "http://www.w3.org/TR/2001/REC-SVG-20010904/DTD/svg10.dtd">
<svg version="1.0" xmlns="http://www.w3.org/2000/svg"
 width="2151.000000pt" height="2151.000000pt" viewBox="0 0 2151.000000 2151.000000"
 preserveAspectRatio="xMidYMid meet">
<metadata>
Created by potrace 1.14, written by Peter Selinger 2001-2017
</metadata>
<g transform="translate(0.000000,2151.000000) scale(0.100000,-0.100000)"
fill="#000000" stroke="none">
<path d="M8584 21452 c-78 -56 -806 -579 -1164 -835 -102 -73 -576 -413 -1055
-757 -809 -580 -1006 -721 -1463 -1050 -95 -69 -183 -132 -195 -140 -12 -8
-101 -72 -199 -142 -97 -70 -416 -299 -710 -509 -293 -210 -634 -455 -758
-544 -124 -89 -362 -260 -530 -380 -168 -120 -390 -280 -495 -355 -407 -293
-625 -448 -732 -525 l-113 -80 3 -4233 2 -4234 360 -148 c580 -238 5552 -2279
5640 -2315 91 -37 137 -56 920 -377 l570 -234 2090 1 2090 2 185 77 c158 66
448 185 755 311 44 18 420 172 836 343 932 383 2791 1147 2954 1213 66 27 309
127 540 222 l420 172 0 2383 c0 1311 -2 2387 -5 2392 -5 8 -37 13 -155 25 -33
4 -76 8 -95 10 -19 3 -105 11 -190 20 -85 8 -173 17 -195 20 -22 2 -67 7 -100
10 -33 3 -76 8 -95 10 -19 2 -62 7 -95 10 -33 4 -76 8 -95 10 -19 3 -105 11
-190 20 -85 8 -173 17 -195 20 -22 2 -110 11 -195 20 -85 8 -171 17 -190 20
-37 5 -299 32 -390 40 -30 3 -71 7 -90 10 -19 2 -61 7 -92 10 -32 3 -84 7
-115 10 -32 3 -74 8 -93 10 -19 3 -57 7 -85 9 -44 5 -134 14 -295 31 -25 3
-65 7 -90 10 -25 2 -65 7 -90 9 -25 3 -72 8 -105 11 -33 3 -98 10 -145 15 -47
5 -107 11 -135 14 -27 3 -140 14 -250 26 -110 11 -225 23 -255 26 -30 3 -71 7
-90 9 -19 3 -105 12 -190 20 -85 9 -174 18 -197 20 -88 10 -131 14 -233 25
-58 6 -127 13 -155 15 -27 3 -66 8 -85 10 -19 2 -64 7 -100 10 -36 3 -81 8
-100 10 -19 2 -64 7 -100 10 -36 4 -76 8 -90 10 -14 2 -56 6 -95 10 -38 4 -99
10 -135 15 -95 12 -4274 12 -4385 0 -49 -6 -115 -13 -145 -16 -30 -3 -66 -7
-80 -9 -14 -2 -61 -7 -105 -11 -44 -3 -87 -8 -96 -9 -9 -2 -52 -6 -95 -10 -43
-3 -90 -8 -104 -10 -14 -3 -74 -9 -135 -15 -60 -6 -126 -12 -145 -15 -19 -2
-62 -7 -95 -10 -168 -17 -259 -26 -285 -30 -14 -2 -56 -6 -95 -10 -38 -3 -88
-8 -110 -10 -55 -6 -330 -35 -385 -40 -55 -6 -230 -24 -285 -30 -22 -2 -67 -7
-100 -10 -33 -3 -76 -8 -95 -10 -19 -3 -57 -7 -85 -10 -27 -2 -117 -12 -200
-20 -82 -8 -175 -18 -205 -21 -30 -2 -71 -7 -90 -9 -19 -3 -62 -7 -95 -10 -33
-3 -76 -8 -95 -10 -19 -3 -62 -7 -95 -10 -69 -7 -233 -24 -285 -30 -19 -2 -66
-7 -105 -10 -38 -4 -81 -8 -95 -10 -14 -2 -54 -6 -90 -10 -36 -3 -81 -8 -100
-10 -62 -7 -134 -14 -187 -20 -29 -3 -77 -7 -105 -10 -63 -6 -139 -15 -188
-20 -19 -3 -107 -11 -195 -20 -88 -8 -168 -17 -177 -19 -17 -4 -18 25 -18 494
0 466 1 499 18 504 14 5 770 159 2292 467 190 39 476 97 635 129 160 32 556
113 880 179 325 66 691 140 815 166 l225 46 2098 0 c1153 0 2105 -2 2115 -5 9
-3 184 -39 387 -80 204 -41 627 -127 940 -191 314 -64 712 -145 885 -180 173
-35 605 -123 960 -195 355 -72 798 -162 985 -200 187 -38 475 -96 640 -130
165 -34 343 -70 395 -80 52 -11 340 -69 640 -130 300 -61 626 -127 725 -147
99 -20 182 -38 185 -40 10 -9 5 -5835 -5 -5843 -12 -9 -160 -85 -1250 -640
-154 -78 -379 -193 -500 -255 -121 -62 -341 -174 -490 -250 -148 -76 -360
-184 -470 -240 -110 -56 -330 -169 -490 -250 -593 -302 -897 -457 -1530 -780
-121 -62 -355 -181 -520 -265 -165 -84 -394 -201 -510 -260 -115 -59 -358
-183 -540 -275 -181 -92 -363 -185 -403 -206 l-74 -39 -2079 0 -2080 0 -242
124 c-133 68 -368 187 -522 266 -154 78 -374 191 -490 250 -115 59 -340 174
-500 255 -159 81 -404 205 -542 276 -139 71 -369 188 -510 260 -142 72 -357
182 -478 244 -121 62 -350 179 -510 260 -159 81 -384 196 -500 255 -115 59
-336 171 -490 250 -154 78 -383 195 -510 260 -126 65 -351 179 -500 255 -148
76 -378 193 -510 260 -132 67 -370 189 -530 270 -159 81 -372 190 -472 241
-100 52 -184 94 -187 94 -4 0 -5 -352 -4 -782 l3 -782 290 -208 c160 -115 308
-221 330 -237 35 -24 398 -284 725 -520 156 -112 598 -429 650 -466 55 -39
1091 -782 1315 -943 265 -191 884 -635 923 -663 38 -26 171 -121 927 -664 614
-440 1348 -967 1871 -1342 l451 -323 2091 0 2092 0 127 92 c71 50 333 238 583
418 250 179 696 499 990 710 294 211 652 468 795 570 143 103 420 301 615 441
406 292 565 406 794 570 88 63 355 254 591 424 237 170 475 341 530 380 55 39
278 199 495 355 217 156 600 430 850 610 250 179 605 434 788 565 l332 239 -2
4229 -3 4230 -200 82 c-265 109 -3732 1532 -4420 1815 -297 122 -598 246 -670
275 -71 29 -458 188 -860 353 -401 165 -867 356 -1036 425 l-305 126 -2086 0
-2086 0 -1109 -455 c-609 -251 -1432 -588 -1828 -751 -396 -162 -1174 -482
-1730 -710 -555 -228 -1015 -417 -1022 -420 -9 -3 -11 -577 -10 -2396 l2
-2392 105 -12 c58 -6 141 -14 185 -18 44 -4 82 -8 85 -10 3 -1 45 -6 94 -10
50 -4 97 -8 105 -10 9 -1 48 -6 86 -9 39 -4 90 -9 115 -12 77 -8 144 -15 180
-19 19 -2 62 -6 95 -10 33 -3 76 -7 95 -10 19 -2 61 -7 93 -10 131 -12 176
-17 247 -25 41 -5 127 -14 190 -20 63 -6 131 -13 150 -15 19 -2 64 -7 100 -10
36 -3 81 -8 100 -10 19 -3 103 -12 185 -20 236 -24 312 -32 385 -40 38 -5 213
-23 295 -30 28 -3 93 -10 145 -15 149 -16 179 -20 280 -30 112 -11 373 -38
445 -45 28 -3 66 -7 85 -10 19 -2 61 -7 93 -10 106 -10 172 -16 207 -20 19 -2
58 -6 85 -9 45 -5 167 -18 295 -31 87 -9 135 -14 195 -20 58 -6 95 -10 188
-20 23 -2 112 -11 197 -20 85 -8 171 -18 190 -20 19 -2 85 -9 145 -15 61 -6
124 -14 140 -17 17 -4 982 -8 2145 -9 2061 -3 2120 -3 2310 17 107 11 215 22
240 24 57 6 234 25 280 30 19 2 62 6 95 10 33 3 76 7 95 10 19 2 62 7 95 10
70 6 98 9 300 30 83 9 166 17 185 20 19 2 67 7 105 10 39 3 81 8 95 10 14 2
52 7 85 10 69 6 343 34 395 40 19 2 64 7 100 10 36 4 76 8 90 10 14 2 59 6
100 10 41 3 82 8 90 10 8 2 53 7 100 10 47 3 92 8 100 10 8 2 49 7 90 10 41 4
86 8 100 10 14 2 59 7 100 10 41 4 82 9 90 10 8 2 53 6 100 10 47 3 92 8 100
10 8 2 49 7 90 10 41 3 111 10 155 15 44 5 107 12 140 15 33 3 74 8 90 10 17
2 62 6 100 10 39 3 86 8 105 10 19 3 62 7 95 10 33 3 76 8 95 10 19 3 62 7 95
10 33 3 76 8 95 10 19 3 58 7 85 10 210 21 356 36 393 40 l42 6 0 -499 0 -499
-102 -21 c-556 -113 -1372 -279 -2223 -452 -165 -33 -307 -62 -315 -65 -8 -2
-31 -7 -50 -10 -31 -5 -474 -95 -1585 -321 -176 -35 -384 -78 -463 -94 l-142
-30 -2079 0 -2078 0 -394 80 c-452 91 -1210 245 -2069 420 -327 67 -750 152
-940 191 -190 38 -487 99 -660 134 -173 35 -616 125 -985 200 -368 75 -713
145 -765 155 -179 36 -935 190 -958 195 l-22 5 2 2921 3 2921 120 62 c66 34
291 149 500 256 209 106 452 230 540 275 88 45 300 153 470 240 171 87 409
208 530 270 121 62 342 174 490 250 149 76 378 193 510 260 329 168 718 366
1040 530 149 76 369 188 490 250 121 62 337 172 480 245 143 73 359 183 480
245 121 62 373 190 560 285 187 95 391 199 453 231 l113 59 2085 0 2086 0 347
-176 c190 -97 418 -214 506 -259 88 -45 309 -158 490 -250 182 -92 420 -214
530 -270 110 -56 326 -167 480 -245 154 -78 379 -193 500 -255 121 -62 346
-177 500 -255 415 -212 763 -389 1010 -515 121 -62 355 -181 520 -265 165 -84
399 -203 520 -265 121 -62 360 -183 530 -270 171 -87 378 -192 460 -235 83
-43 308 -157 500 -255 193 -98 406 -207 475 -242 l125 -64 3 777 c2 614 -1
781 -10 790 -10 10 -1083 781 -1278 919 -25 18 -229 164 -455 327 -225 162
-626 449 -890 638 -264 189 -502 360 -530 380 -27 21 -273 197 -545 392 -272
195 -582 417 -688 494 -106 76 -203 146 -215 154 -12 8 -85 60 -162 116 -170
122 -1252 899 -1303 935 -21 14 -167 119 -327 234 -159 115 -322 231 -362 259
-75 54 -210 150 -534 383 l-197 141 -2085 0 -2085 1 -78 -57z"/>
</g>
</svg>
