<?xml version="1.0" standalone="no"?>
<!DOCTYPE svg PUBLIC "-//W3C//DTD SVG 20010904//EN"
 "http://www.w3.org/TR/2001/REC-SVG-20010904/DTD/svg10.dtd">
<svg version="1.0" xmlns="http://www.w3.org/2000/svg"
 width="362.000000pt" height="362.000000pt" viewBox="0 0 362.000000 362.000000"
 preserveAspectRatio="xMidYMid meet">
<metadata>
Created by potrace 1.11, written by Peter Selinger 2001-2013
</metadata>
<g transform="translate(0.000000,362.000000) scale(0.100000,-0.100000)"
fill="#000000" stroke="none">
<path d="M1640 3588 c-277 -29 -571 -131 -795 -276 -515 -332 -819 -890 -819
-1502 0 -167 13 -274 50 -421 147 -588 552 -1043 1114 -1252 357 -133 732
-146 1113 -41 616 171 1098 678 1245 1309 22 95 29 134 41 254 8 80 6 294 -3
345 -3 17 -8 54 -11 81 -17 137 -87 359 -161 508 -262 534 -777 907 -1364 987
-104 14 -313 18 -410 8z m390 -73 c169 -21 386 -88 553 -171 475 -236 816
-690 917 -1222 34 -181 34 -443 0 -622 -104 -546 -444 -991 -949 -1239 -163
-80 -383 -143 -561 -160 -99 -9 -335 -7 -405 4 -22 4 -53 8 -70 11 -261 42
-564 180 -780 355 -141 114 -278 265 -371 411 -44 69 -113 198 -134 253 -104
266 -140 454 -135 716 1 86 5 160 7 165 3 5 9 33 12 63 16 135 73 315 150 476
91 190 189 327 348 485 267 266 637 440 1018 479 85 9 317 6 400 -4z"/>
<path d="M1830 3286 c0 -28 -3 -33 -22 -32 -69 6 -103 -54 -73 -127 9 -22 53
-33 75 -20 11 7 22 8 34 1 12 -7 21 -7 29 1 8 8 6 11 -6 11 -19 0 -19 2 -18
123 0 44 -3 77 -9 77 -6 0 -10 -15 -10 -34z m-2 -97 c-2 -40 -8 -55 -25 -66
-19 -13 -24 -12 -42 6 -43 43 -14 111 47 111 22 0 23 -3 20 -51z"/>
<path d="M2025 3280 c-3 -5 3 -10 14 -10 25 0 25 5 1 -95 -11 -49 -15 -84 -10
-89 6 -5 36 -12 68 -14 51 -4 62 -1 86 20 39 33 47 102 16 140 -31 40 -158 75
-175 48z m106 -25 c51 -18 69 -38 69 -76 0 -70 -45 -106 -115 -91 -32 7 -39
12 -37 28 4 30 34 154 37 154 1 0 22 -7 46 -15z"/>
<path d="M1574 3226 c-15 -11 -22 -12 -33 -3 -12 10 -13 9 -8 -6 4 -10 10 -43
13 -73 4 -30 11 -57 17 -61 7 -4 8 13 4 50 -8 60 6 87 43 87 24 0 29 -9 36
-62 7 -51 28 -78 46 -60 9 9 8 12 -4 12 -12 0 -19 13 -24 48 -3 26 -10 54 -14
62 -11 20 -52 23 -76 6z"/>
<path d="M1414 3199 c-40 -11 -57 -32 -56 -69 2 -67 43 -100 96 -75 18 9 37
15 42 14 5 -1 15 -1 23 0 16 1 5 16 -12 16 -6 0 -20 28 -30 63 -10 34 -22 62
-25 61 -4 0 -21 -5 -38 -10z m45 -53 c15 -60 14 -64 -9 -76 -29 -15 -56 -4
-69 29 -22 51 -3 78 60 90 4 0 12 -19 18 -43z"/>
<path d="M2277 3134 c-15 -15 -27 -32 -28 -38 0 -6 -2 -19 -4 -28 -2 -10 4
-27 13 -38 18 -23 82 -38 82 -21 0 6 -11 11 -24 11 -28 0 -56 24 -56 47 0 12
6 14 28 8 54 -14 62 -14 77 1 31 31 15 66 -36 79 -19 5 -31 0 -52 -21z m78
-10 c12 -12 13 -19 4 -30 -14 -17 -28 -18 -65 -4 -26 10 -26 11 -9 30 22 24
48 26 70 4z"/>
<path d="M1060 3115 c0 -5 89 -175 96 -183 7 -9 73 32 81 51 19 42 -25 117
-67 117 -10 0 -29 -9 -43 -20 l-25 -20 -12 30 c-11 26 -30 41 -30 25z m142
-52 c8 -10 18 -30 22 -45 5 -21 1 -31 -20 -47 -15 -12 -30 -21 -33 -21 -12 0
-45 71 -44 93 3 38 49 50 75 20z"/>
<path d="M2432 3098 c2 -14 -10 -102 -18 -130 -10 -34 21 -18 76 37 63 63 56
75 -7 14 -40 -37 -49 -40 -43 -14 10 49 11 105 1 105 -7 0 -11 -6 -9 -12z"/>
<path d="M1000 3003 c-21 -9 -38 -34 -35 -52 2 -9 4 -22 4 -29 2 -22 49 -62
74 -62 27 0 67 34 67 57 0 11 -6 8 -21 -11 -20 -26 -62 -35 -74 -17 -3 5 3 16
13 23 63 44 40 117 -28 91z m44 -50 c-5 -9 -20 -23 -32 -31 -20 -13 -22 -12
-28 14 -6 22 -2 31 16 46 21 17 25 17 39 3 12 -11 13 -20 5 -32z"/>
<path d="M2545 2985 c-35 -34 -34 -88 2 -112 36 -23 52 -25 84 -6 27 16 39 39
39 76 0 26 -45 67 -75 67 -14 0 -37 -11 -50 -25z m89 -11 c22 -21 20 -60 -4
-84 -54 -54 -126 23 -75 80 22 24 58 26 79 4z"/>
<path d="M850 2972 c0 -7 18 -48 40 -92 l40 -80 -80 40 c-45 22 -85 38 -90 35
-5 -3 9 -40 31 -81 23 -42 39 -78 36 -80 -2 -2 -34 12 -70 31 -64 34 -101 43
-111 27 -2 -4 -1 -14 3 -21 6 -10 10 -9 14 3 5 13 21 9 97 -30 50 -26 94 -43
98 -39 4 3 -12 42 -34 86 -23 43 -39 79 -37 79 2 0 39 -18 82 -40 43 -21 81
-36 84 -33 3 3 -14 44 -38 92 -52 101 -65 121 -65 103z"/>
<path d="M2720 2898 c0 -7 -30 -44 -66 -82 -36 -37 -62 -71 -59 -74 3 -3 18 6
33 21 l27 26 22 -23 c21 -22 52 -26 86 -12 19 9 47 56 47 79 0 21 -40 59 -56
53 -8 -3 -14 1 -14 9 0 18 -20 20 -20 3z m58 -40 c18 -18 15 -42 -9 -72 -23
-30 -54 -33 -81 -9 -24 22 -23 29 12 63 33 32 58 38 78 18z"/>
<path d="M1751 2750 c-219 -74 -275 -350 -101 -502 48 -42 88 -65 262 -147
101 -48 182 -117 220 -188 24 -44 31 -67 42 -153 5 -39 -22 -141 -48 -181 -36
-54 -83 -97 -140 -127 -45 -24 -62 -27 -146 -27 -84 0 -101 3 -145 27 -86 45
-151 123 -176 209 -7 24 -14 45 -15 47 -1 2 -18 -4 -38 -12 l-35 -15 13 -45
c37 -122 147 -236 268 -275 100 -32 239 -20 325 29 73 42 142 115 177 190 41
87 47 219 15 307 -44 119 -152 224 -296 289 -225 100 -296 165 -307 278 -6 56
27 137 73 177 105 94 260 64 336 -65 9 -14 15 -15 43 -5 40 14 40 25 2 77 -77
107 -211 152 -329 112z"/>
<path d="M2843 2758 c-6 -7 -8 -22 -6 -33 18 -75 -11 -102 -47 -43 -17 29 -20
30 -20 11 0 -23 35 -63 56 -63 23 0 46 32 39 54 -20 70 -11 92 25 56 27 -27
40 -18 15 10 -21 23 -48 26 -62 8z"/>
<path d="M466 1473 c3 -13 -18 -33 -71 -71 -41 -29 -75 -57 -75 -63 0 -5 24
-9 53 -10 28 -1 76 -2 105 -3 28 -1 52 1 52 5 0 11 -31 15 -107 14 -40 -1 -73
0 -73 1 0 1 32 25 70 54 44 33 70 59 70 71 0 10 -6 19 -14 19 -8 0 -13 -7 -10
-17z"/>
<path d="M3172 1432 c-21 -62 26 -82 72 -31 15 16 33 28 39 26 17 -5 21 -45 6
-63 -17 -21 -4 -28 16 -8 27 27 7 93 -28 94 -5 0 -22 -13 -37 -30 -42 -45 -76
-38 -50 10 6 11 6 21 1 24 -5 3 -13 -7 -19 -22z"/>
<path d="M3148 1313 c-9 -2 -21 -17 -28 -33 -15 -35 -2 -64 40 -85 38 -20 63
-19 83 3 21 23 34 82 18 82 -6 0 -11 -11 -11 -24 0 -52 -55 -72 -98 -36 -29
24 -26 60 6 76 25 12 19 23 -10 17z"/>
<path d="M526 1283 c-3 -3 1 -11 10 -17 13 -10 1 -19 -70 -51 -47 -22 -85 -43
-86 -47 0 -14 20 -8 90 27 38 19 76 35 84 35 19 0 31 -57 16 -75 -18 -22 -57
-18 -70 5 -14 27 -30 25 -30 -2 -1 -13 -7 -34 -15 -48 -19 -33 -19 -66 0 -74
17 -6 21 9 5 19 -6 4 -2 21 10 46 18 35 22 38 40 27 27 -17 72 1 83 32 15 42
-43 147 -67 123z"/>
<path d="M3010 1180 c0 -5 5 -10 10 -10 6 0 10 5 10 10 0 6 -4 10 -10 10 -5 0
-10 -4 -10 -10z"/>
<path d="M3070 1156 c0 -15 115 -71 129 -62 6 4 11 15 11 24 0 15 -2 15 -10 2
-8 -13 -18 -11 -70 16 -33 17 -60 26 -60 20z"/>
<path d="M2420 976 c0 -72 4 -127 10 -131 6 -4 10 18 10 59 0 71 14 96 55 96
32 0 38 -12 40 -82 1 -63 14 -85 42 -73 17 7 17 8 -2 15 -17 6 -20 17 -21 68
0 34 -6 68 -14 76 -14 18 -52 21 -81 6 -17 -10 -19 -7 -19 34 0 25 -4 48 -10
51 -6 4 -10 -38 -10 -119z"/>
<path d="M1052 1074 c-17 -12 -22 -24 -20 -47 2 -27 11 -36 52 -58 58 -32 71
-51 56 -79 -17 -32 -58 -44 -86 -25 -13 8 -24 20 -24 25 0 6 -4 10 -10 10 -17
0 -11 -26 10 -45 31 -28 89 -23 117 10 40 46 21 85 -61 125 -17 8 -32 23 -34
33 -7 38 42 63 67 34 8 -10 7 -17 -1 -25 -9 -9 -8 -12 4 -12 26 0 29 38 5 55
-27 19 -47 19 -75 -1z"/>
<path d="M1202 1079 c2 -7 10 -15 17 -17 8 -3 12 1 9 9 -2 7 -10 15 -17 17 -8
3 -12 -1 -9 -9z"/>
<path d="M2207 1084 c-8 -8 1 -24 14 -24 5 0 9 7 9 15 0 15 -12 20 -23 9z"/>
<path d="M3010 1058 c-11 -12 -20 -32 -20 -45 0 -14 -4 -21 -10 -18 -5 3 -10
3 -10 -2 0 -11 111 -74 123 -70 6 2 -10 16 -36 33 -36 22 -46 35 -47 55 0 15
7 32 15 39 13 11 24 7 64 -18 43 -26 52 -29 68 -17 10 8 14 17 9 22 -5 4 -11
2 -13 -5 -4 -9 -20 -4 -58 18 -29 16 -55 30 -58 30 -4 0 -15 -10 -27 -22z"/>
<path d="M2290 969 c0 -50 5 -99 10 -110 12 -21 50 -25 68 -7 19 19 14 30 -7
17 -10 -7 -26 -9 -35 -6 -23 9 -19 131 4 133 8 1 22 2 30 3 13 1 13 3 1 10 -8
5 -23 8 -33 6 -13 -3 -18 2 -18 21 0 13 -4 24 -10 24 -6 0 -10 -37 -10 -91z"/>
<path d="M1207 1013 c-7 -14 -2 -148 6 -160 9 -15 47 -18 47 -4 0 5 -8 11 -19
14 -16 4 -18 14 -16 76 2 63 -6 96 -18 74z"/>
<path d="M1288 1014 c-4 -3 -3 -16 1 -28 3 -11 6 -47 5 -78 -1 -32 2 -60 7
-64 10 -6 11 0 11 71 0 56 19 85 54 85 24 0 37 -34 34 -87 -4 -50 0 -73 10
-73 6 0 10 30 10 69 0 75 12 95 52 89 20 -3 23 -9 26 -58 3 -81 10 -100 32
-100 10 0 22 5 25 10 3 6 -2 10 -12 10 -16 0 -19 9 -21 56 -1 31 -4 64 -7 75
-9 27 -50 35 -79 15 -21 -13 -26 -13 -36 -1 -16 19 -54 19 -74 0 -13 -14 -16
-14 -23 0 -5 9 -12 13 -15 9z"/>
<path d="M1595 935 c2 -101 20 -124 20 -29 1 68 15 94 50 94 29 0 35 -16 35
-96 0 -36 4 -64 10 -64 6 0 10 27 10 61 0 72 12 99 45 99 32 0 37 -11 39 -81
3 -65 15 -86 43 -74 17 7 17 8 -1 14 -17 6 -20 19 -22 71 -2 48 -7 68 -20 77
-24 17 -59 16 -74 -2 -11 -13 -14 -13 -27 0 -19 19 -57 19 -73 0 -11 -14 -14
-13 -25 2 -11 14 -12 1 -10 -72z"/>
<path d="M1921 1006 c-45 -25 -55 -96 -20 -140 22 -27 56 -34 89 -16 13 7 21
7 25 0 8 -13 45 -13 45 0 0 6 -7 10 -15 10 -17 0 -17 -1 -19 90 l-1 65 -40 2
c-22 2 -51 -3 -64 -11z m84 -59 c1 -27 -5 -57 -13 -68 -33 -48 -101 -1 -88 63
9 46 24 59 65 56 36 -3 36 -3 36 -51z"/>
<path d="M2095 934 c3 -104 19 -124 23 -27 2 70 13 93 43 93 10 0 21 5 24 10
10 16 -41 11 -55 -5 -11 -14 -14 -13 -25 1 -9 13 -11 -1 -10 -72z"/>
<path d="M2212 933 c3 -83 4 -88 26 -91 12 -2 22 1 22 7 0 6 -7 11 -15 11 -12
0 -15 16 -15 80 0 49 -4 80 -10 80 -7 0 -10 -32 -8 -87z"/>
<path d="M482 977 c-26 -15 -20 -27 9 -20 10 3 19 12 19 19 0 17 1 17 -28 1z"/>
<path d="M725 950 c-3 -5 2 -10 12 -10 12 -1 -6 -23 -56 -69 -40 -38 -69 -71
-64 -74 6 -4 23 7 38 23 35 37 42 37 77 3 34 -33 38 -18 4 17 l-24 25 25 26
24 26 45 -46 c55 -55 54 -41 0 23 -43 52 -71 72 -81 56z"/>
<path d="M2902 904 c-34 -24 -43 -48 -31 -83 12 -34 52 -60 83 -55 10 1 28 12
41 24 31 29 27 75 -9 106 -32 28 -53 30 -84 8z m78 -24 c28 -28 26 -66 -5 -86
-52 -34 -115 29 -81 81 20 31 58 33 86 5z"/>
<path d="M2796 790 c-7 -17 -16 -31 -19 -31 -4 1 -9 1 -11 1 -3 0 20 -23 50
-52 30 -28 56 -49 58 -47 3 3 -13 25 -34 49 -39 44 -44 74 -18 91 6 4 6 9 -1
13 -7 5 -17 -5 -25 -24z"/>
<path d="M863 795 c18 -13 15 -18 -37 -81 -31 -37 -56 -71 -56 -75 0 -11 53
-47 92 -63 28 -12 38 -12 65 -1 49 21 70 62 64 127 -2 28 -92 108 -121 108
-23 -1 -24 -1 -7 -15z m82 -55 c38 -39 40 -90 5 -125 -39 -37 -84 -37 -129 1
l-31 26 53 64 c28 35 57 64 63 64 5 0 23 -14 39 -30z"/>
<path d="M2667 683 c76 -102 111 -124 133 -84 13 25 13 31 0 31 -5 0 -10 -7
-10 -15 0 -29 -36 -15 -68 27 -29 38 -30 42 -14 54 9 7 14 16 10 20 -4 4 -15
1 -23 -6 -12 -10 -19 -10 -27 -2 -27 27 -27 9 -1 -25z"/>
<path d="M2572 620 c-27 -26 -28 -55 -2 -97 26 -44 67 -48 108 -10 34 31 26
42 -9 13 -43 -36 -87 -21 -102 36 -8 28 22 60 49 54 14 -4 24 -2 24 4 0 5 -4
10 -9 10 -5 0 -16 2 -23 5 -8 3 -24 -4 -36 -15z"/>
<path d="M1061 560 c-30 -39 -60 -69 -67 -68 -7 2 -13 -1 -14 -7 0 -5 7 -11
17 -12 12 -2 34 18 63 57 48 63 66 75 56 37 -10 -41 -19 -157 -11 -157 3 0 33
25 66 57 32 31 62 54 65 50 5 -5 -3 -40 -32 -139 -3 -10 -1 -18 4 -18 9 0 50
127 59 183 4 25 2 27 -14 19 -10 -6 -31 -25 -48 -42 -16 -18 -43 -41 -59 -52
l-28 -21 6 59 c4 32 9 74 13 92 9 51 -16 39 -76 -38z"/>
<path d="M2301 498 c12 -29 28 -72 36 -96 16 -46 37 -62 56 -43 8 8 6 11 -8
11 -16 0 -26 18 -51 87 -17 48 -36 89 -42 91 -8 2 -4 -16 9 -50z"/>
<path d="M2420 530 c-25 -25 -25 -56 0 -97 26 -43 74 -46 110 -8 27 29 20 32
-17 8 -35 -23 -50 -24 -65 -5 -11 12 -11 16 0 20 7 2 25 14 40 27 23 20 25 25
14 49 -14 32 -53 35 -82 6z m70 -26 c0 -15 -38 -44 -57 -44 -14 0 -17 38 -5
56 18 27 62 19 62 -12z"/>
<path d="M2173 500 c-75 -22 -83 -27 -83 -47 0 -12 3 -13 14 -4 18 15 19 12
42 -78 11 -40 24 -75 30 -78 17 -6 125 27 119 37 -3 4 -26 2 -52 -6 -62 -19
-61 -19 -71 19 -10 35 5 57 39 57 10 0 21 5 24 11 7 10 -20 9 -64 -2 -15 -4
-36 51 -23 62 4 3 28 12 55 19 26 7 47 17 47 21 0 11 -3 11 -77 -11z"/>
<path d="M1917 463 c-3 -5 -4 -21 -3 -36 3 -24 0 -27 -26 -27 -39 0 -78 -40
-78 -80 0 -42 42 -85 73 -75 12 4 37 7 55 6 17 0 32 4 32 10 0 5 -4 8 -9 4
-16 -9 -21 11 -27 107 -5 93 -8 106 -17 91z m2 -126 c2 -55 -17 -82 -52 -73
-46 11 -49 98 -5 115 39 14 54 3 57 -42z"/>
<path d="M1453 430 c-73 -29 -47 -161 28 -146 16 3 29 1 29 -4 0 -6 10 -10 23
-10 20 1 21 2 5 14 -16 11 -16 17 -3 67 19 69 19 67 -7 74 -45 13 -53 13 -75
5z m76 -26 c2 -2 -2 -24 -9 -49 -10 -35 -18 -47 -38 -52 -32 -8 -63 26 -55 59
10 41 34 59 67 52 17 -3 33 -8 35 -10z"/>
<path d="M1616 330 c0 -38 3 -73 7 -77 4 -3 7 0 8 8 2 46 9 101 13 108 10 16
56 19 67 5 7 -9 10 -34 7 -64 -5 -50 4 -70 31 -70 11 0 11 3 -3 19 -13 14 -15
28 -10 58 8 53 -8 83 -44 83 -16 0 -33 -5 -39 -11 -8 -8 -13 -8 -17 0 -15 24
-21 8 -20 -59z"/>
</g>
</svg>
