<?xml version="1.0" encoding="UTF-8" standalone="no"?>
<svg
   xmlns:dc="http://purl.org/dc/elements/1.1/"
   xmlns:cc="http://creativecommons.org/ns#"
   xmlns:rdf="http://www.w3.org/1999/02/22-rdf-syntax-ns#"
   xmlns:svg="http://www.w3.org/2000/svg"
   xmlns="http://www.w3.org/2000/svg"
   xmlns:sodipodi="http://sodipodi.sourceforge.net/DTD/sodipodi-0.dtd"
   xmlns:inkscape="http://www.inkscape.org/namespaces/inkscape"
   width="59.213741mm"
   height="49.549656mm"
   viewBox="0 -10 59.213741 49.549656"
   version="1.1"
   id="svg8"
   sodipodi:docname="cag.svg"
   inkscape:version="1.0.1 (3bc2e813f5, 2020-09-07)">
  <defs
     id="defs2" />
  <sodipodi:namedview
     id="base"
     pagecolor="#ffffff"
     bordercolor="#666666"
     borderopacity="1.0"
     inkscape:pageopacity="0.0"
     inkscape:pageshadow="2"
     inkscape:zoom="1.4142136"
     inkscape:cx="584.4833"
     inkscape:cy="278.28968"
     inkscape:document-units="mm"
     inkscape:current-layer="g90"
     inkscape:document-rotation="0"
     showgrid="false"
     inkscape:window-width="1920"
     inkscape:window-height="1017"
     inkscape:window-x="-8"
     inkscape:window-y="416"
     inkscape:window-maximized="1"
     fit-margin-top="0"
     fit-margin-left="0"
     fit-margin-right="0"
     fit-margin-bottom="0" />
  <metadata
     id="metadata5">
    <rdf:RDF>
      <cc:Work
         rdf:about="">
        <dc:format>image/svg+xml</dc:format>
        <dc:type
           rdf:resource="http://purl.org/dc/dcmitype/StillImage" />
        <dc:title></dc:title>
      </cc:Work>
    </rdf:RDF>
  </metadata>
  <g
     inkscape:label="Ebene 1"
     inkscape:groupmode="layer"
     id="layer1">
    <g
       id="g90"
       transform="translate(45.357143,-0.09449405)">
      <path
         style="fill:#fefefe;stroke-width:0.0846667"
         d="m -24.206963,49.510743 c 1.445042,-0.37639 2.398597,-1.42869 2.62809,-2.90024 l 0.05612,-0.35983 h -1.01539 c -1.015388,0 -1.015388,0 -1.065206,0.23283 -0.09549,0.44627 -0.299194,0.9327 -0.446383,1.0659 -0.282596,0.25575 -0.799876,0.40954 -1.37748,0.40954 -0.671383,0 -1.093811,-0.17046 -1.392329,-0.56183 -0.389051,-0.51008 -0.482896,-0.93008 -0.526644,-2.35699 -0.05709,-1.86201 0.116752,-2.64468 0.712508,-3.2079 0.333393,-0.31518 0.624968,-0.40755 1.286492,-0.40755 0.998517,0 1.596714,0.46939 1.73998,1.36533 0.05245,0.328 0.05245,0.328 1.071286,0.328 h 1.018836 l -0.05706,-0.3175 c -0.354037,-1.97002 -1.720947,-3.07342 -3.799569,-3.0671 -0.819392,0.002 -1.268645,0.098 -1.89567,0.4031 -0.952603,0.46349 -1.659424,1.42299 -2.009222,2.7275 -0.181177,0.67567 -0.205605,2.74524 -0.04147,3.51367 0.243159,1.13841 0.965473,2.25893 1.754066,2.72108 0.888269,0.52056 2.284664,0.69183 3.359048,0.41199 z m 18.2957931,-3.4e-4 c 0.717948,-0.1521 1.519691,-0.51845 1.937591,-0.88537 0.31349,-0.27524 0.31349,-0.27524 0.31349,-2.2138 v -1.93856 h -1.908297 -1.908297 l 0.02446,0.74083 0.02446,0.74083 0.870863,0.0242 0.870863,0.0242 -0.0242,0.8225 c -0.0242,0.82251 -0.0242,0.82251 -0.331843,0.97294 -0.169206,0.0827 -0.552426,0.17329 -0.8516,0.20123 -1.073565,0.10025 -1.86052,-0.33494 -2.265577,-1.25288 -0.240998,-0.54614 -0.363049,-1.86047 -0.266185,-2.86645 0.146065,-1.51693 0.610623,-2.24706 1.565732,-2.46081 1.020245,-0.22832 1.913528,0.24099 2.164435,1.13714 l 0.109848,0.39234 h 0.974172 0.974171 l -0.05233,-0.40217 c -0.02878,-0.22119 -0.195887,-0.68626 -0.371342,-1.03349 -0.374728,-0.7416 -0.918497,-1.23497 -1.686912,-1.53057 -0.692333,-0.26634 -2.165456,-0.33124 -2.869926,-0.12644 -1.34796,0.39186 -2.1653941,1.21019 -2.6457671,2.64868 -0.201125,0.60227 -0.219336,0.77629 -0.223677,2.13732 -0.0039,1.20742 0.02409,1.5757 0.15095,1.98967 0.464423,1.51549 1.4237441,2.50852 2.7741811,2.87168 0.595581,0.16016 1.9115,0.16366 2.650728,0.007 z m -12.6782181,-1.06008 0.314426,-1.01767 1.736924,0.0228 1.736925,0.0228 0.303621,0.97367 0.30362,0.97367 1.086448,0.0238 c 1.007479,0.0221 1.083368,0.0128 1.044074,-0.127 -0.03545,-0.12612 -3.313362,-8.90633 -3.493725,-9.35827 -0.05139,-0.12878 -0.182576,-0.14807 -1.002573,-0.14737 l -0.943442,7.6e-4 -1.135752,3.06837 c -0.624663,1.6876 -1.429914,3.85894 -1.789447,4.8252 l -0.653695,1.75683 h 1.089086 1.089085 l 0.314425,-1.01766 z m 0.91047,-2.77115 c 0.02599,-0.0815 0.288985,-0.87193 0.584441,-1.75653 l 0.537191,-1.60836 0.280015,0.84636 c 0.154008,0.4655 0.425843,1.25594 0.604078,1.75653 l 0.324061,0.91016 h -1.188517 c -1.093478,0 -1.18474,-0.0118 -1.141269,-0.14816 z m -4.484672,-8.72095 c 1.011892,-1.78632 1.996829,-3.1991 2.510647,-3.60122 0.405524,-0.31737 0.264012,-0.43111 -0.448977,-0.36085 -0.586996,0.0578 -0.586996,0.0578 -1.068417,-0.34808 -0.797896,-0.67276 -1.539841,-1.40338 -1.834742,-1.80674 -0.321395,-0.43959 -0.429697,-0.88924 -0.55061,-2.286 -0.242555,-2.80196 0.02801,-6.17136 0.807163,-10.05174 0.25367,-1.26335 0.257424,-1.37826 0.04502,-1.37826 -0.394548,0 -1.272269,1.41816 -1.808907,2.92271 -0.627631,1.75965 -1.498401,6.80099 -1.499998,8.68425 -3.38e-4,0.37338 -3.38e-4,0.37338 -0.171186,0.0931 -0.296707,-0.48666 -0.982923,-0.66362 -1.3756,-0.35474 -0.118399,0.0931 -0.278245,0.16933 -0.355211,0.16933 -0.122047,0 -0.132652,-0.074 -0.08294,-0.57843 0.04497,-0.45638 0.02732,-0.63582 -0.08365,-0.85041 -0.311715,-0.60279 -1.227602,-0.81057 -1.725652,-0.39149 -0.416824,0.35073 -0.692536,0.23454 -0.693091,-0.2921 -3.39e-4,-0.34679 -0.238979,-0.78189 -0.535266,-0.97602 -0.11275,-0.0739 -0.390793,-0.15439 -0.617875,-0.17892 -0.505567,-0.0546 -0.92661,0.1367 -1.174435,0.53361 -0.220966,0.35389 -0.52612,0.37716 -0.598081,0.0456 -0.09379,-0.43212 -0.247546,-0.64005 -0.587693,-0.79475 -0.634804,-0.28871 -1.29524,-0.15855 -1.606594,0.31664 -0.131972,0.20141 -0.159627,0.21197 -0.229292,0.0875 -0.04357,-0.0778 -0.100563,-0.39805 -0.126651,-0.71154 -0.05003,-0.60121 0.09403,-3.83482 0.22148,-4.97123 0.07405,-0.66033 0.08089,-0.67493 0.484751,-1.03513 0.225301,-0.20095 0.714439,-0.60362 1.086973,-0.89483 1.702391,-1.33075 2.831089,-2.06148 5.355166,-3.467 0.244475,-0.13614 0.4445,-0.30706 0.4445,-0.37984 0,-0.11315 -0.09056,-0.12411 -0.625008,-0.0757 -0.739485,0.067 -1.49192,0.26617 -2.592325,0.68615 -1.056039,0.40306 -2.92558,1.34805 -3.491459,1.76482 -0.127486,0.0939 -0.255845,0.14667 -0.285243,0.11727 -0.152043,-0.15204 0.495456,-4.52551 0.852279,-5.75663 0.347115,-1.1976299 0.290823,-1.2557799 -0.43265,-0.44691 -1.357458,1.51768 -2.440988,4.04959 -3.077965,7.19236 -0.238623,1.17734 -0.238623,1.17734 -0.648283,1.524 -0.225312,0.19066 -0.646828,0.56573 -0.9367,0.83349 -0.289873,0.26776 -0.552937,0.48683 -0.584589,0.48683 -0.118223,0 0.313457,-5.8815 0.686671,-9.35566 0.07003,-0.65194 0.185373,-1.7377899 0.256307,-2.4129999 0.377046,-3.589016 0.705472,-5.5641179 1.267082,-7.620002 0.145772,-0.53363104 0.16626,-0.93133404 0.04798,-0.93133404 -0.274753,0 -1.113084,1.45305604 -1.525282,2.64373104 -0.133399,0.385331 -0.324806,0.927272 -0.425351,1.204313 -0.162597,0.448015 -0.518422,1.689851 -1.032266,3.602622 -0.222518,0.82832 -0.876888,3.9342499 -1.079194,5.1223299 -0.363445,2.13441 -0.646011,4.77447 -0.743075,6.94267 l -0.05686,1.27 -0.107502,-0.71967 c -0.562235,-3.76382 -0.456695,-8.34397 0.277035,-12.0226599 0.385698,-1.9337699 1.488531,-5.2368409 1.977981,-5.9242099 0.205337,-0.288371 0.211634,-0.3411261 0.04071,-0.3411261 -0.441144,0 -1.530714,0.897785 -2.091156,1.723073 -0.578775,0.852284 -1.363282,3.008193 -1.668273,4.584593 -0.05406,0.2794 -0.15163,0.7366 -0.216832,1.016 -0.178637,0.7655 -0.449351,2.9534399 -0.609703,4.9277099 -0.180442,2.22159 -0.204577,7.18056 -0.04133,8.49196 0.15632,1.25576 0.493347,2.70949 0.771156,3.32631 0.431889,0.95893 1.569269,2.07188 2.689984,2.63221 0.969389,0.48468 2.26241,0.91141 3.858881,1.27355 0.224242,0.0509 0.229112,0.0627 0.116565,0.28401 -0.410563,0.80718 -0.520398,2.52484 -0.218716,3.42037 0.572237,1.69866 1.519132,2.75759 2.941811,3.28988 1.226818,0.45902 2.119405,0.62381 3.40332,0.62834 1.131023,0.004 1.260993,-0.0118 1.651,-0.2008 0.892413,-0.43243 2.04544,-1.93229 2.681624,-3.48827 0.26834,-0.65631 0.26834,-0.65631 0.529025,-0.52216 1.078881,0.55518 3.291591,2.37426 3.684037,3.02867 0.08429,0.14055 0.175878,0.45961 0.203525,0.70902 0.04604,0.41532 0.165306,0.68996 0.299323,0.68926 0.02922,-1.7e-4 0.241908,-0.33353 0.472633,-0.74084 z m -17.591094,-11.68372 c -0.151452,-0.35105 -0.312073,-1.17197 -0.312073,-1.59499 0,-0.22264 0.133707,-0.42289 0.728237,-1.09066 0.40053,-0.44986 0.745779,-0.80039 0.76722,-0.77895 0.06543,0.0654 -0.142954,2.09538 -0.275595,2.68464 -0.236635,1.05127 -0.640892,1.3986 -0.907789,0.77996 z m 31.1394201,12.17504 c 0.07105,-0.13739 0.129174,-0.39861 0.129174,-0.58049 0,-0.41488 0.324129,-0.85762 1.194311,-1.63135 1.098129,-0.9764 3.138609,-2.37767 3.270391,-2.24589 0.02337,0.0234 0.16393,0.34368 0.312359,0.71181 0.810848,2.011 2.054557,3.46336 3.21045597,3.74905 0.945555,0.23371 3.08944003,-0.0475 4.56184003,-0.59843 1.42773,-0.53418 2.36428,-1.58643 2.94867,-3.31296 0.15869,-0.46882 0.17765,-0.67077 0.14222,-1.51461 -0.0297,-0.70699 -0.0914,-1.11281 -0.22517,-1.48167 -0.10135,-0.2794 -0.19173,-0.55887 -0.20084,-0.62103 -0.0113,-0.0769 0.28587,-0.19032 0.92813,-0.35444 1.13373,-0.2897 2.5046399,-0.8366 3.2129799,-1.28177 0.28436,-0.17871 0.83829,-0.65833 1.23096,-1.06584 0.6078,-0.63075 0.75449,-0.84163 0.98656,-1.41825 0.14994,-0.37254 0.34578,-1.05834 0.43521,-1.524 0.32574,-1.69628 0.36307,-2.42917 0.32008,-6.2848 -0.0535,-4.80153 -0.23322,-6.66768 -0.95791,-9.9483399 -0.37512,-1.69816 -0.61319,-2.42319 -1.17515,-3.578862 -0.52007,-1.069526 -1.09072,-1.764105 -1.8554099,-2.258347 -0.44881,-0.290079 -0.87542,-0.429155 -0.79904,-0.260487 0.0158,0.03493 0.2082,0.42545 0.42753,0.867834 0.7436799,1.500021 1.5045699,4.091012 1.8869099,6.425302 0.36858,2.2503499 0.41773,2.9198399 0.4202,5.7243599 0.002,2.40928 -0.021,2.8875 -0.20856,4.318 l -0.21094,1.60867 -0.096,-1.778 c -0.23987,-4.44246 -1.03486,-9.01224 -2.3787599,-13.6736659 -0.67185,-2.3303449 -1.26069,-3.847537 -1.84212,-4.74634194 -0.69443,-1.073476 -0.82039,-0.6925311 -0.33759,1.02100904 0.44365,1.574617 0.64556,2.899233 1.22605,8.0433289 0.27024,2.3948499 0.83524,9.2626199 0.84165,10.2305699 0.004,0.52976 0.1029,0.57542 -1.19531,-0.54913 -0.79682,-0.69024 -0.79682,-0.69024 -0.89472,-1.35467 -0.13031,-0.88447 -0.72867,-3.1056 -1.08559,-4.02979 -0.62895,-1.62855 -1.49493,-3.10159 -2.27063,-3.86235 -0.20734,-0.2033399 -0.41457,-0.3464799 -0.46052,-0.3180799 -0.0516,0.0319 -0.006,0.3024899 0.12048,0.7083799 0.30094,0.96868 0.50685,2.06046 0.74803,3.96624 0.30231,2.38882 0.33594,2.22617 -0.36637,1.77184 -0.94246,-0.60967 -2.69288003,-1.45284 -3.69405303,-1.77941 -1.59192197,-0.51926 -2.79882797,-0.70735 -2.73670797,-0.4265 0.01506,0.0681 0.636975,0.4723 1.382041,0.89828 2.16407497,1.23727 3.676265,2.27628 5.18388,3.56177 0.75858,0.64682 0.75858,0.64682 0.81081,1.32409 0.13351,1.7313 0.25142,4.7496 0.19671,5.03544 -0.0608,0.31767 -0.0608,0.31767 -0.30673,0.1905 -0.32837,-0.16981 -0.814,-0.15772 -1.228,0.0306 -0.34015,0.1547 -0.49391,0.36263 -0.5877,0.79475 -0.072,0.33157 -0.37711,0.3083 -0.598077,-0.0456 -0.247825,-0.39691 -0.668868,-0.58821 -1.17443503,-0.53361 -0.227082,0.0245 -0.505125,0.10504 -0.617875,0.17892 -0.296287,0.19413 -0.534901,0.62923 -0.535266,0.97602 -5.93e-4,0.52664 -0.276267,0.64283 -0.69309097,0.2921 -0.49805,-0.41908 -1.413937,-0.2113 -1.725652,0.39149 -0.11097,0.21459 -0.128621,0.39403 -0.08365,0.85041 0.04971,0.50448 0.0391,0.57843 -0.08294,0.57843 -0.07697,0 -0.236812,-0.0762 -0.355211,-0.16933 -0.403398,-0.31732 -1.087813,-0.12946 -1.389164,0.3813 -0.130588,0.22133 -0.22913,0.29791 -0.359427,0.27931 -0.166912,-0.0238 -0.186556,-0.10584 -0.27986,-1.16861 -0.226203,-2.57654 -0.64667,-5.15998 -1.123065,-6.90034 -0.295337,-1.07892 -0.876177,-2.44273 -1.315544,-3.08888 -0.412926,-0.60728 -0.811006,-0.95537 -0.942346,-0.82403 -0.03405,0.034 0.11638,1.02397 0.334284,2.19984 0.561986,3.03263 0.674882,4.16782 0.683997,6.87774 0.0075,2.21906 -0.07868,3.38668 -0.302955,4.10633 -0.132298,0.42452 -0.554731,0.91211 -1.623684,1.8741 l -0.9375861,0.84377 -0.659543,-0.0575 c -0.436756,-0.0381 -0.659544,-0.0278 -0.659544,0.0305 0,0.0484 0.213839,0.31049 0.475197,0.58244 0.579196,0.60265 1.338873,1.70309 2.1165251,3.06591 0.320803,0.5622 0.610875,1.02323 0.644604,1.02452 0.03373,10e-4 0.119455,-0.11006 0.1905,-0.24745 z m 16.400441,-11.96615 c -0.24841,-0.29931 -0.55888,-1.70228 -0.65047,-2.93939 l -0.0596,-0.80433 0.31141,0.29633 c 0.17127,0.16298 0.51809,0.54823 0.77071,0.85609 0.50073,0.61025 0.52207,0.69995 0.37175,1.56253 -0.16481,0.94574 -0.46649,1.36298 -0.74385,1.02877 z"
         id="path102"
         sodipodi:nodetypes="sscsssssssssscsccssssscsscccccccscssssscccssssscsscccccccccssccsscccccsscsscsscsccssssscccsssscccsssscscscssccscscsssscsssssssccsssssccssscccscccscsscccssccsscssccscscccssssccsssccscccssssscssssscscsssssssccscscsssscscssscscssccscsccccccscscc" />
      <path
         style="fill:#f8be34;stroke-width:0.0846667"
         d="m -32.99709,37.410863 c -2.612358,-0.49482 -3.842417,-1.27158 -4.638073,-2.92886 -0.496376,-1.03391 -0.604143,-1.54536 -0.546913,-2.59558 0.072,-1.32126 0.440238,-2.13326 1.199104,-2.64413 0.7895,-0.5315 1.414596,-0.61814 2.817805,-0.39056 1.080787,0.17529 1.68737,0.41787 2.120577,0.84802 0.410892,0.408 0.458619,0.6822 0.194222,1.11582 -0.117667,0.19298 -0.251422,0.28679 -0.466416,0.32713 -0.387119,0.0726 -1.132931,-0.0213 -1.779907,-0.22421 -0.941242,-0.29516 -1.68651,-0.16026 -1.952112,0.35336 -0.204218,0.39491 -0.133719,1.15039 0.127058,1.36155 0.292592,0.23693 0.458245,0.20414 0.39186,-0.0776 -0.166162,-0.70511 -0.157992,-0.92374 0.04146,-1.10956 0.255253,-0.2378 0.815227,-0.24033 1.483242,-0.007 0.692796,0.2423 1.629418,0.30989 1.966192,0.14189 0.283022,-0.14119 0.354229,-0.11669 0.354229,0.1219 0,0.26435 0.516344,0.74788 0.889,0.83249 0.39443,0.0896 0.895641,-0.0188 1.248057,-0.2697 0.23361,-0.16635 0.23361,-0.16635 0.23361,0.013 0,0.28826 0.237111,0.66581 0.505229,0.80446 0.365781,0.18915 1.06592,0.16543 1.410945,-0.0478 0.285159,-0.17624 0.285159,-0.17624 0.28475,0.0212 -2.54e-4,0.10857 -0.163844,0.55935 -0.363596,1.00174 -0.675481,1.49596 -1.722379,2.81095 -2.567089,3.22447 -0.352728,0.17268 -0.555813,0.20506 -1.386906,0.22114 -0.541035,0.0105 -1.237008,-0.031 -1.566333,-0.0934 z m 32.33018307,0.004 c -0.74442897,-0.24521 -1.40914197,-0.87733 -2.20573797,-2.09759 -0.403283,-0.61777 -0.963762,-1.80485 -1.089134,-2.30677 -0.06096,-0.24403 -0.06096,-0.24403 0.267021,-0.0212 0.384769,0.26145 1.069154,0.30522 1.476773,0.0944 0.268118,-0.13865 0.505229,-0.5162 0.505229,-0.80446 0,-0.17931 0,-0.17931 0.23361,-0.013 0.352416,0.25094 0.85362697,0.35925 1.24805697,0.2697 0.372656,-0.0846 0.889,-0.56814 0.889,-0.83249 0,-0.23859 0.07121,-0.26309 0.35422903,-0.1219 0.336774,0.168 1.273397,0.10041 1.966187,-0.14189 0.66802,-0.23363 1.22799,-0.2311 1.48325,0.007 0.19945,0.18582 0.20762,0.40445 0.0415,1.10956 -0.0664,0.28171 0.0993,0.3145 0.39186,0.0776 0.26078,-0.21116 0.33128,-0.96664 0.12706,-1.36155 -0.2656,-0.51362 -1.01087,-0.64852 -1.95211,-0.35336 -0.64698,0.20288 -1.39279,0.29683 -1.779909,0.22421 -0.34679703,-0.0651 -0.63119503,-0.44399 -0.63171103,-0.84167 -4.23e-4,-0.35367 0.59047203,-0.91074 1.21009403,-1.14075 0.575056,-0.21346 1.852386,-0.43479 2.512096,-0.43527 0.72079,-5.1e-4 1.57797,0.38894 2.10616,0.95696 0.34646,0.37258 0.62177,1.27791 0.67036,2.20445 0.0551,1.05047 -0.0535,1.56433 -0.54862,2.59558 -0.71085,1.48064 -1.69672,2.20069 -3.72751,2.72247 -1.192437,0.30639 -2.94113803,0.40999 -3.54771403,0.21019 z M -28.727936,32.541383 c -0.333001,-0.333 -0.323112,-0.65932 0.05337,-1.76115 0.680022,-1.99018 1.053431,-2.5344 1.68148,-2.45062 0.715188,0.0954 1.089795,0.72133 0.918751,1.53516 -0.145925,0.69431 -0.861498,2.23166 -1.20857,2.5965 -0.284329,0.2989 -0.35044,0.3276 -0.754588,0.3276 -0.376693,0 -0.479977,-0.037 -0.690443,-0.24749 z m 25.0707011,0.0252 c -0.474717,-0.37229 -1.357875,-2.46237 -1.357204,-3.14057 5.92e-4,-0.60412 0.522857,-1.12451 1.128545,-1.12451 0.500144,0 0.916739,0.67332 1.533615,2.4787 0.376481,1.10183 0.40391,1.434 0.07091,1.767 -0.207544,0.20755 -0.333353,0.24164 -0.688377,0.24164 -0.333428,0 -0.344985,0.0463 -0.687489,-0.22226 z m -27.2562021,-0.57323 c -0.263372,-0.14597 -0.425907,-0.44732 -0.429652,-0.7966 -0.0044,-0.40675 0.471931,-2.06536 0.986063,-3.43379 0.175203,-0.54202 0.09034,-0.57257 0.505553,-0.91296 0.261426,-0.2456 0.924285,-0.30881 1.284568,-0.1225 0.445472,0.23036 0.619568,0.50428 0.565151,1.28452 -0.02923,0.41914 -0.113903,0.58997 -0.113903,0.58997 0,0 -0.25735,0.54375 -0.504138,1.16049 -0.579253,1.4476 -0.839827,1.91822 -1.19365,2.15582 -0.323199,0.21704 -0.786742,0.24866 -1.099993,0.075 z m 29.7000351,-0.075 c -0.353823,-0.2376 -0.614397,-0.70822 -1.19365,-2.15582 -0.246788,-0.61674 -0.486804,-1.10739 -0.533371,-1.09033 -0.05206,0.0191 -0.08467,-0.23514 -0.08467,-0.66013 0,-0.78214 0.119679,-1.05416 0.565151,-1.28452 0.360283,-0.18631 1.023142,-0.1231 1.284568,0.1225 0.28527397,0.2404 0.40635497,0.61712 0.50555297,0.91296 0.495644,1.31922 0.989064,3.01971 0.989064,3.40864 0,0.80593 -0.837121,1.21378 -1.53264597,0.74671 z m -30.3752091,-2.46159 c -0.235902,-0.2511 -0.867323,-0.59615 -1.353792,-0.73978 -0.202755,-0.0599 -0.386292,-0.15484 -0.407858,-0.21104 -0.06717,-0.17505 0.319868,-2.26556 0.467276,-2.52388 0.237041,-0.41539 0.556912,-0.59573 1.052221,-0.59325 0.507285,0.003 0.925093,0.19088 1.135381,0.51182 0.153423,0.23416 0.280528,0.70901 0.163045,1.14261 -0.0105,0.0388 -0.187244,0.58309 -0.386256,1.2583 -0.199014,0.67522 -0.388548,1.25675 -0.42119,1.29229 -0.03264,0.0355 -0.144614,-0.0261 -0.248827,-0.13707 z m 31.88276107,0.13879 c -0.02123,-0.0365 -0.20187,-0.61879 -0.401422,-1.29401 -0.199551,-0.67521 -0.410547,-1.2316 -0.422316,-1.27 -0.04206,-0.13725 0.0447,-0.89675 0.198125,-1.13091 0.210288,-0.32094 0.628096,-0.50928 1.135381,-0.51182 0.49530903,-0.002 0.81518003,0.17786 1.05222103,0.59325 0.147408,0.25832 0.534448,2.34883 0.467278,2.52388 -0.0216,0.0562 -0.2051,0.15175 -0.40786,0.21233 -0.509617,0.15226 -0.94629903,0.38476 -1.29087303,0.6873 -0.160564,0.14098 -0.309304,0.22647 -0.330534,0.18998 z m -35.39920607,-1.18798 -0.922632,-0.0273 0.05495,-0.77408 c 0.07082,-0.99777 0.213608,-1.82425 0.367369,-2.12644 0.135024,-0.26537 0.561267,-0.48017 0.95285,-0.48017 0.408561,0 0.929255,0.24982 1.064066,0.51052 0.170028,0.3288 0.170954,0.57761 0.0063,1.69082 -0.185201,1.25206 -0.192391,1.27372 -0.415464,1.25202 -0.101636,-0.01 -0.599979,-0.0303 -1.107427,-0.0453 z m 37.8507831,-0.0752 c -0.0878,-0.29883 -0.33441,-2.10554 -0.32017,-2.34597 0.0443,-0.74766 0.8669,-1.18121 1.6941,-0.89284 0.47677,0.1662 0.7114,0.8764 0.82542,2.49849 l 0.0558,0.79416 -0.79567,9.3e-4 c -0.43761,5.1e-4 -0.93459,0.0239 -1.10439,0.052 -0.25411,0.042 -0.31694,0.0231 -0.35512,-0.10677 z"
         id="path100"
         sodipodi:nodetypes="cssssssccsssscsscsssssssscccssssscsssscsssscsssssssccssssssssssssssccccsscssccsssssccsssccsscsssscsssscsssssccssssscccsssscscss" />
      <path
         style="fill:#e48e16;stroke-width:0.0846667"
         d="m -28.826192,33.079463 c -0.254795,-0.13825 -0.487898,-0.52063 -0.487898,-0.80035 0,-0.17931 0,-0.17931 -0.23361,-0.013 -0.352416,0.25094 -0.853627,0.35925 -1.248057,0.26969 -0.372656,-0.0846 -0.889,-0.56813 -0.889,-0.83248 0,-0.23859 -0.07121,-0.2631 -0.354229,-0.1219 -0.336774,0.168 -1.273396,0.10041 -1.966192,-0.14189 -0.668015,-0.23363 -1.227989,-0.2311 -1.483242,0.007 -0.199457,0.18582 -0.207627,0.40445 -0.04146,1.10956 0.06638,0.2817 -0.09927,0.31449 -0.39186,0.0776 -0.260777,-0.21117 -0.331276,-0.96664 -0.127058,-1.36156 0.265602,-0.51361 1.01087,-0.64852 1.952112,-0.35335 0.646976,0.20288 1.392788,0.29683 1.779907,0.2242 0.346797,-0.0651 0.619502,-0.43229 0.620018,-0.82997 4.23e-4,-0.35482 -0.587515,-0.90195 -1.211257,-1.13351 -0.969169,-0.35978 -2.772875,-0.49746 -3.331706,-0.28367 -0.150214,0.0575 -0.127298,4.6e-4 0.0041,-0.084 0.113925,-0.0733 0.151694,-0.22637 0.163428,-0.66256 0.0123,-0.45727 0.02133,-0.49125 0.04656,-0.17521 l 0.0313,0.39209 1.075273,0.039 c 0.5914,0.0214 1.071847,0.004 1.0891,-0.009 0.04128,-0.0329 0.155469,-0.55524 0.282499,-1.47273 0.09709,-0.70124 0.01821,-0.71567 0.205769,-0.67145 0.101545,0.0239 0.324606,0.0734 0.338,0.0848 0.01339,0.0115 -0.109753,0.46171 -0.207979,1.03081 -0.09822,0.56909 -0.160772,1.08114 -0.138999,1.13788 0.02177,0.0567 0.205481,0.15273 0.408236,0.21331 0.509617,0.15226 0.981378,0.36722 1.325952,0.66976 0.160564,0.14098 0.268378,0.20308 0.289608,0.16659 0.02123,-0.0365 0.207158,-0.57786 0.406025,-1.25308 0.198868,-0.67521 0.372165,-1.24067 0.385106,-1.25656 0.01294,-0.0159 0.293171,0.10224 0.394071,0.13454 0,0 0.02527,-0.0709 -0.349292,0.95266 -0.378959,1.03568 -0.855157,2.72998 -0.855157,3.04264 0,0.80302 0.838382,1.16879 1.532646,0.70257 0.353678,-0.2375 0.614149,-0.66686 1.19365,-2.11423 0.246788,-0.61637 0.467754,-1.12061 0.491037,-1.12053 0.02328,8e-5 0.237433,0.14813 0.297238,0.18603 0,0 -0.09491,0.0802 -0.294172,0.52432 -0.403905,0.90022 -0.78542,2.27125 -0.78542,2.61842 0,0.23702 -0.0021,0.38463 0.183175,0.56992 0.210465,0.21047 0.313749,0.24749 0.690442,0.24749 0.404791,0 0.470035,-0.0285 0.757236,-0.33038 0.192077,-0.20191 0.445808,-0.69038 0.670919,-1.21029 0.202582,-0.46787 0.388405,-0.81307 0.398648,-0.80282 0.01024,0.0102 -0.186376,0.60839 -0.436931,1.32922 -0.250557,0.72083 -0.457712,1.25987 -0.460346,1.19786 -0.0035,-0.0821 -0.08217,-0.0649 -0.289948,0.0635 -0.342423,0.21163 -1.077345,0.23412 -1.428276,0.0437 z m 24.8534201,-0.24271 c 0,0 -0.09376,-0.13446 -0.466497,-1.22082 -0.21745,-0.63377 -0.387016,-1.16066 -0.376813,-1.17087 0.0102,-0.0102 0.1843,0.36426 0.386882,0.83213 0.225111,0.51991 0.490535,0.97915 0.682612,1.18106 0.287201,0.30191 0.352445,0.33038 0.757236,0.33038 0.376693,0 0.479977,-0.037 0.690442,-0.24749 0.185288,-0.18529 0.247487,-0.32705 0.247487,-0.56407 0,-0.34717 -0.463367,-1.7182 -0.867272,-2.61842 -0.199255,-0.44411 -0.305865,-0.5594 -0.305865,-0.5594 0.05981,-0.038 0.303187,-0.1568 0.326471,-0.1568 0.02328,-8e-5 0.244249,0.50416 0.491037,1.12053 0.579501,1.44737 0.839972,1.91766 1.19365,2.15516 0.69426397,0.46622 1.53264597,0.0595 1.53264597,-0.7435 0,-0.31266 -0.476198,-2.00696 -0.855157,-3.04264 -0.374562,-1.02365 -0.377177,-0.95868 -0.377177,-0.95868 0.102809,-0.0252 0.384211,-0.14855 0.397151,-0.13265 0.01294,0.0159 0.211043,0.58548 0.409911,1.26069 0.198867,0.67522 0.378947,1.25752 0.400178,1.29401 0.02123,0.0365 0.16997,-0.049 0.330534,-0.18998 0.344574,-0.30254 0.78125603,-0.53504 1.29087303,-0.6873 0.20276,-0.0606 0.38646,-0.15657 0.40824,-0.21331 0.0218,-0.0567 -0.0408,-0.56879 -0.139,-1.13788 -0.0982,-0.5691 -0.231942,-1.04412 -0.218552,-1.05561 0.0134,-0.0115 0.380432,-0.0703 0.480492,-0.0999 0,0 -0.0232,0.0102 0.0738,0.71138 0.12703,0.91749 0.24227,1.44875 0.28356,1.48165 0.0173,0.0138 0.50491,-0.0157 1.09631,-0.0367 l 1.067,-0.002 0.0313,-0.39209 c 0.0252,-0.31604 0.0343,-0.28206 0.0466,0.17521 0.0117,0.43619 0.0875,0.6127 0.20143,0.68595 0.13143,0.0845 0.10273,0.0996 -0.0475,0.0422 -0.55883,-0.2138 -2.32261,-0.0313 -3.291781,0.32844 -0.623742,0.23155 -1.24971903,0.74068 -1.24925903,1.0955 5.08e-4,0.39769 0.284914,0.77661 0.63171103,0.84167 0.387119,0.0726 1.132929,-0.0213 1.779909,-0.22421 0.94124,-0.29516 1.68651,-0.16026 1.95211,0.35336 0.20422,0.39491 0.13372,1.15039 -0.12706,1.36155 -0.29259,0.23693 -0.45824,0.20414 -0.39186,-0.0776 0.16616,-0.70511 0.15799,-0.92374 -0.0415,-1.10956 -0.25526,-0.2378 -0.81523,-0.24033 -1.48325,-0.007 -0.69279,0.2423 -1.629413,0.30989 -1.966187,0.14189 -0.28302203,-0.1412 -0.35422903,-0.11669 -0.35422903,0.1219 0,0.26435 -0.516344,0.74787 -0.889,0.83248 -0.39443,0.0896 -0.89564097,-0.0187 -1.24805697,-0.26969 -0.23361,-0.16635 -0.23361,-0.16635 -0.23361,0.013 0,0.28826 -0.237111,0.66581 -0.505229,0.80446 -0.401992,0.20788 -0.934433,0.25776 -1.333837,-10e-4 z M -37.63037,29.777103 c 0.11287,-0.20952 0.415519,-0.48271 0.738613,-0.66672 0.248847,-0.14172 0.249706,-0.14159 0.04233,0.007 -0.116417,0.0833 -0.35957,0.3026 -0.54034,0.48743 -0.180769,0.18484 -0.289042,0.2625 -0.240607,0.17259 z m 43.9173371,-0.27179 c -0.1404,-0.12669 -0.34995,-0.29868 -0.46566,-0.3822 -0.20261,-0.14624 -0.20008,-0.14627 0.0686,-6.8e-4 0.15343,0.0832 0.37963,0.25626 0.50267,0.38469 0.28574,0.29824 0.2258,0.29721 -0.10558,-0.002 z m -42.2683721,-2.43164 c 9.39e-4,-0.18627 0.01828,-0.2525 0.03853,-0.14718 0.02025,0.10532 0.01948,0.25772 -0.0017,0.33866 -0.02119,0.081 -0.03776,-0.005 -0.03682,-0.19148 z m 40.8940021,0 c 9.4e-4,-0.18627 0.0183,-0.2525 0.0385,-0.14718 0.0202,0.10532 0.0195,0.25772 -0.002,0.33866 -0.0212,0.081 -0.0378,-0.005 -0.0368,-0.19148 z"
         id="path96"
         sodipodi:nodetypes="cscsssscssssccsscsscccsscssssssscsssssssssssssssscccssssssssccssssssssssssssssccssscsssssssscsscssscccscscccscsccssssscsccc" />
      <path
         style="fill:#010101;stroke-width:0.0846667"
         d="m -26.26609,49.547233 c -1.105896,-0.19171 -2.153767,-1.01138 -2.619158,-2.04878 -0.396251,-0.88328 -0.471262,-1.33901 -0.470164,-2.85645 0.0011,-1.53312 0.08274,-1.95437 0.563125,-2.90601 0.87311,-1.72962 3.039645,-2.43279 5.109538,-1.65834 0.979285,0.3664 1.874711,1.52743 2.034646,2.63818 l 0.05791,0.40217 h -0.983281 c -0.947413,0 -0.983279,-0.007 -0.983279,-0.18068 0,-0.36233 -0.211428,-0.87177 -0.468489,-1.12883 -0.680412,-0.68041 -2.155875,-0.6154 -2.776649,0.12235 -0.451503,0.53658 -0.650038,1.39696 -0.64889,2.81205 0.0013,1.60346 0.313815,2.5912 0.953906,3.01493 0.307616,0.20364 0.424239,0.22851 1.071161,0.22851 1.129625,0 1.591089,-0.31252 1.807662,-1.22424 l 0.101371,-0.42676 h 0.953631 c 1.101626,0 1.065094,-0.04 0.786421,0.8622 -0.442641,1.4331 -1.646751,2.28717 -3.371055,2.39108 -0.359005,0.0216 -0.862286,0.003 -1.118403,-0.0414 z m 18.1480201,0.002 c -1.53629,-0.27299 -2.6270181,-1.23564 -3.0983271,-2.7345 -0.169087,-0.53773 -0.190693,-0.78392 -0.190693,-2.17278 0,-1.41357 0.01922,-1.62414 0.197053,-2.159 0.645907,-1.94267 2.2898781,-2.95049 4.3740201,-2.68146 0.377288,0.0487 0.901474,0.16918 1.164858,0.26772 0.849061,0.31768 1.602229,1.17381 1.825517,2.07507 0.223347,0.90151 0.308488,0.81292 -0.755441,0.78597 -0.945624,-0.024 -0.945624,-0.024 -1.049472,-0.3762 -0.244837,-0.83044 -0.789418,-1.21038 -1.734868,-1.21038 -0.969034,0 -1.503279,0.37998 -1.867773,1.32846 -0.235458,0.6127 -0.33053,2.51352 -0.167233,3.34354 0.187084,0.95093 0.638619,1.60875 1.291453,1.88146 0.501312,0.20941 1.632126,0.17765 2.101446,-0.059 0.377774,-0.1905 0.377774,-0.1905 0.401902,-1.05834 l 0.02413,-0.86783 h -0.891963 -0.891962 v -0.71967 -0.71966 h 1.862667 1.862667 v 1.90977 c 0,1.90977 0,1.90977 -0.275167,2.16846 -0.332432,0.31253 -1.118332,0.69665 -1.768546,0.86441 -0.629163,0.16233 -1.867848,0.23106 -2.414268,0.13397 z m -12.8607331,-0.22671 c 0.03197,-0.083 0.82254,-2.20826 1.756815,-4.72286 0.934275,-2.5146 1.717309,-4.62086 1.740075,-4.68059 0.03091,-0.0811 0.269187,-0.10253 0.940482,-0.0847 l 0.899089,0.0239 1.627961,4.36034 c 0.895379,2.39818 1.704139,4.56036 1.797243,4.80483 l 0.169283,0.4445 h -1.040579 -1.040578 l -0.323115,-1.01765 -0.323115,-1.01765 -1.771993,0.0228 -1.771992,0.0228 -0.315928,0.97367 -0.315929,0.97367 -1.042925,0.0239 c -0.970873,0.0222 -1.03891,0.0134 -0.984794,-0.127 z m 5.619754,-3.60102 c -0.08454,-0.32684 -1.115458,-3.33266 -1.159777,-3.38153 -0.02911,-0.0321 -0.326659,0.73942 -0.661217,1.7145 l -0.608286,1.77286 h 1.228328 c 0.940817,0 1.22192,-0.0248 1.200952,-0.10583 z m -7.377805,-8.255 c -0.02022,-0.0349 -0.06441,-0.29141 -0.09821,-0.56997 -0.06003,-0.49473 -0.07842,-0.52386 -0.793739,-1.25733 -0.746462,-0.76539 -1.96258,-1.73825 -2.82841,-2.26263 -0.264775,-0.16037 -0.65779,-0.37378 -0.658994,-0.44363 -0.002,-0.11631 0.446071,-1.41644 0.854067,-2.5567 0.117752,-0.32909 0.324718,-0.75913 0.363545,-1.56691 0.109955,-2.28762 0.483406,-4.90012 0.994334,-6.95594 0.533364,-2.14609 1.083036,-3.46396 1.76898,-4.24122 0.601249,-0.6813 0.60356,-0.66879 0.218898,1.18498 -0.259607,1.25111 -0.593273,3.68582 -0.731259,5.33591 -0.184353,2.20455 0.01714,5.83609 0.359788,6.48438 0.216706,0.41001 1.564905,1.75019 2.415778,2.40141 0.262179,0.20066 0.286022,0.20373 0.681748,0.0877 0.225538,-0.0661 0.475577,-0.0972 0.555644,-0.0691 0.120375,0.0422 0.07828,0.11672 -0.243168,0.43032 -0.213808,0.20859 -0.572442,0.6269 -0.796964,0.92958 -0.430442,0.58029 -1.517615,2.33646 -1.756412,2.83722 -0.137647,0.28865 -0.231553,0.35992 -0.305627,0.23195 z m 13.4309051,-0.73654 c -0.686628,-1.24314 -1.5281051,-2.47472 -2.1183841,-3.10045 -0.597702,-0.63359 -0.569416,-0.73754 0.144243,-0.53009 0.20955,0.0609 0.409333,0.11116 0.443963,0.11166 0.08173,10e-4 1.2459271,-1.02535 1.9531021,-1.72216 0.688047,-0.67796 0.764377,-0.82726 0.958723,-1.87525 0.241784,-1.30381 0.221848,-5.22295 -0.03661,-7.19667 -0.218629,-1.66958 -0.457921,-3.12679 -0.706414,-4.30184 -0.0966,-0.45678 -0.148741,-0.85683 -0.115874,-0.889 0.114434,-0.11201 0.787468,0.74493 1.165297,1.4837 0.945764,1.84927 1.586258,4.95948 1.966005,9.1375 0.119598,1.31583 0.140494,1.41636 0.343827,1.397 0,0 0.224826,-0.009 0.304967,0.0268 0,0 0.0031,0.0997 0.0031,0.23202 0,0.18415 0.137166,0.62296 0.254798,0.9394 0.117629,0.31644 0.273497,0.94882 0.417834,1.39099 0.144336,0.44218 0.313492,0.82223 0.333029,0.87314 0.01954,0.0509 -0.378404,0.31209 -0.741397,0.52324 -1.038248,0.60393 -2.027211,1.37396 -2.955862,2.30153 -0.802748,0.8018 -0.860212,0.88212 -0.914989,1.27886 -0.07235,0.52402 -0.127888,0.72048 -0.202676,0.71693 -0.03179,-0.002 -0.255281,-0.36029 -0.496654,-0.7973 z m -29.8718081,-7.29425 c -2.168019,-0.60704 -3.208967,-1.14493 -4.233333,-2.18748 -0.800051,-0.81425 -1.062244,-1.30308 -1.351727,-2.52014 -0.480286,-2.01923 -0.669081,-4.46248 -0.551676,-7.13938 0.329791,-7.51944 1.327649,-12.2488948 3.041953,-14.4176518 0.317316,-0.401435 1.482444,-1.275286 1.575841,-1.181888 0.02661,0.02661 -0.06665,0.252258 -0.20724,0.50144 -0.601482,1.066049 -1.570375,4.2178499 -1.987211,6.4643899 -0.35458,1.9109999 -0.433275,2.9926199 -0.434283,5.9689999 -5.93e-4,1.86187 0.03878,3.25869 0.108679,3.85233 0.138566,1.17673 0.357475,2.50553 0.437129,2.65342 0.0336,0.0624 0.08699,-0.63472 0.118658,-1.54911 0.158737,-4.58394 1.060916,-9.8819699 2.510975,-14.7456628 0.74691,-2.505235 1.394669,-4.046813 1.988058,-4.73130904 l 0.220193,-0.254 -0.03458,0.296333 c -0.01902,0.162983 -0.151103,0.73448304 -0.293514,1.27000004 -0.517697,1.946715 -0.953908,5.0934489 -1.414283,10.2023288 -0.117495,1.30387 -0.232511,2.50402 -0.25559,2.667 -0.220446,1.55677 -0.466207,6.01134 -0.331648,6.01134 0.02717,0 0.360544,-0.27656 0.740834,-0.61457 0.38029,-0.33801 0.850327,-0.742 1.044528,-0.89775 0.307553,-0.24666 0.360402,-0.33939 0.409772,-0.71894 0.194558,-1.49572 0.932624,-4.02129 1.570143,-5.37283 0.228857,-0.48517 0.62452,-1.19206 0.87925,-1.57086 0.470328,-0.6994 1.312709,-1.6023199 1.195467,-1.28139 -0.264094,0.72293 -0.712271,3.05838 -0.934245,4.86834 -0.07139,0.58208 -0.151033,1.22026 -0.176992,1.41816 -0.02596,0.19791 -0.01283,0.35984 0.02917,0.35984 0.042,0 0.560018,-0.28225 1.151151,-0.62722 1.78172,-1.03978 3.471342,-1.71634 4.904687,-1.96395 1.06628,-0.1842 1.13789,-0.13087 0.397506,0.29605 -2.383892,1.37461 -3.068585,1.80281 -4.191,2.621 -1.208121,0.88066 -2.50188,1.98694 -2.539742,2.1717 -0.05113,0.2495 -0.203238,2.67656 -0.26532,4.23342 -0.04394,1.10202 -0.02857,1.45325 0.08246,1.88329 0.09566,0.3705 0.296305,0.59156 0.240248,0.73901 -0.04399,0.11571 -0.135654,0.61242 -0.162859,1.11402 -0.07822,1.44212 -0.124185,1.50537 -0.607087,1.72361 -0.231537,0.10464 -0.602806,0.36722 -0.814837,0.57329 -0.21203,0.20607 -0.330333,0.38064 -0.340187,0.3778 0,0 -0.774278,-0.28437 -1.519345,-0.49298 z m -0.06242,-3.80531 c 0.32869,-0.23022 0.609883,-1.46485 0.746326,-3.2769 0.03616,-0.4802 0.02563,-0.74083 -0.02993,-0.74083 -0.07852,0 -0.926007,0.91123 -1.484841,1.59654 -0.253754,0.31118 -0.253798,0.3215 -0.0064,1.50927 0.113306,0.54408 0.365966,1.04285 0.528267,1.04285 0.03283,0 0.143801,-0.0589 0.246612,-0.13093 z m 45.4495941,3.82352 c -0.20829,-0.18046 -0.52301,-0.34311 -0.7436,-0.44355 -0.45982,-0.20936 -0.50064,-0.24048 -0.5778,-1.66552 -0.0312,-0.57715 -0.10752,-1.16824 -0.21742,-1.4831 -0.13707,-0.39265 -0.0414,-0.67492 -0.033,-1.43129 0.01,-0.86404 -0.21552,-4.741 -0.29871,-5.14613 -0.0418,-0.2038 -1.44797,-1.39657 -2.718012,-2.30561 -0.95004703,-0.67999 -2.56044203,-1.68547 -3.672303,-2.29286 -0.34925,-0.19079 -0.7112,-0.40815 -0.804333,-0.48303 -0.158555,-0.12747 -0.134873,-0.13274 0.372077,-0.0829 1.52136397,0.1496 3.595378,0.95119 5.615251,2.17023 0.45247,0.27307 0.86249,0.4965 0.91117,0.4965 0.0536,0 0.0714,-0.1254 0.0451,-0.3175 -0.0239,-0.17463 -0.11988,-0.94615 -0.21333,-1.7145 -0.1791,-1.47257 -0.60664,-3.75981 -0.81115,-4.33944 -0.0667,-0.189 -0.10562,-0.35927 -0.0865,-0.37836 0.0711,-0.0712 0.7577,0.71899 1.20077,1.38192 1.05391,1.57689 1.87561,3.80928 2.35494,6.39792 l 0.18289,0.98772 1.03437,0.89612 c 0.5689,0.49286 1.05945,0.89612 1.0901,0.89612 0.0982,0 -0.0391,-2.67918 -0.26024,-5.08 -0.824,-8.9445199 -1.14984,-11.4956498 -1.76269,-13.8006688 -0.14238,-0.535517 -0.27718,-1.10648804 -0.29956,-1.26882514 -0.0361,-0.2616189 -0.0255,-0.282526 0.0933,-0.183992 1.05326,0.87413404 2.89262,6.84261604 3.8266899,12.41714594 0.53914,3.21756 0.79869,5.85821 0.80266,8.1661 7.6e-4,0.4287 0.0319,0.6832 0.0777,0.635 0.10794,-0.11355 0.40944,-2.29867 0.5251,-3.80558 0.12461,-1.62359 0.0526,-5.37625 -0.13244,-6.90052 -0.34929,-2.8774299 -1.38444,-6.6890179 -2.2512399,-8.2893839 -0.13707,-0.253082 -0.2301,-0.4792769 -0.20672,-0.502654 0.0898,-0.08981 1.2650399,0.802014 1.5770799,1.196771 1.29022,1.632266 2.13036,4.560027 2.65327,9.2462669 0.31302,2.80529 0.40542,4.67548 0.36041,7.29475 -0.0424,2.46954 -0.13388,3.33729 -0.52504,4.98192 -0.26006,1.09345 -0.43954,1.49819 -0.93184,2.10152 -1.07806,1.32121 -2.30481,1.98444 -5.0843199,2.7488 -0.59495,0.16361 -0.76722,0.20363 -0.76722,0.20363 z m 2.0108,-3.84496 c 0.33919,-0.3748 0.64998,-1.9512 0.44565,-2.26047 -0.21841,-0.33057 -1.49955,-1.73582 -1.58252,-1.73582 -0.0535,0 -0.0652,0.27069 -0.0321,0.74083 0.12695,1.80144 0.40722,3.04471 0.73872,3.2769 0.23602,0.16532 0.26241,0.164 0.43023,-0.0214 z"
         id="path92"
         sodipodi:nodetypes="sssssscsssssssscsssssssssssscssssssscccccccssssscssscssccccccccccccssscsssssssssssssssscsssssssscsssssssssssssssscsssssssssscssssscssssssssssssssssssssssssscsscssssscccscsccssssssssscsscsscsscsssssssssssssccssscsss" />
    </g>
  </g>
</svg>
